<svg width="396" height="406" viewBox="0 0 396 406" fill="none" xmlns="http://www.w3.org/2000/svg">
<path d="M127.167 56L308 0L259 95.6667L166.833 119L115.5 194.833L0 199.5L127.167 56Z" fill="#297E3D"/>
<path d="M395.139 202.011L348.824 385.565L292.645 293.928L320.698 203.087L282.67 119.782L338.807 18.7343L395.139 202.011Z" fill="#C5292A"/>
<path d="M136.785 362.761L1.16643 230.684L108.618 228.001L173.165 297.808L264.311 306.654L323.612 405.876L136.785 362.761Z" fill="#FAA821"/>
<path d="M282.333 119L320.833 203L240.333 205.333L282.333 119Z" fill="#C34B4A"/>
<path d="M211.167 190.166L115.5 194.833L166.833 119L211.167 190.166Z" fill="#328E41"/>
<path d="M263.667 306.833L172.667 297.5L213.5 227.5L263.667 306.833Z" fill="#F5BF48"/>
<path d="M172.667 297.5L264.833 306.833L323.167 406L136.5 363L172.667 297.5Z" fill="#F28020"/>
<path d="M338.334 19.8333L394.334 200.667L320.834 203L282.333 119L338.334 19.8333Z" fill="#B62125"/>
<path d="M0 199.5L127 56L166.833 119L114.333 194.833L0 199.5Z" fill="#1B5F30"/>
</svg>
